<?xml version="1.0" standalone="no"?>
<!DOCTYPE svg PUBLIC "-//W3C//DTD SVG 20010904//EN"
 "http://www.w3.org/TR/2001/REC-SVG-20010904/DTD/svg10.dtd">
<svg version="1.0" xmlns="http://www.w3.org/2000/svg"
 width="285.000000pt" height="131.982593pt" viewBox="0 0 285.000000 131.982593"
 preserveAspectRatio="xMidYMid meet">
<g transform="translate(-91.000000,340.891967) scale(0.100000,-0.100000)"
fill="#000000" stroke="none">
<path fill="#000000" stroke="none" d="M3354 3387 c-20 -18 -27 -33 -27 -58 1
-30 -11 -46 -90 -126 -74 -75 -94 -90 -108 -82 -22 11 -70 12 -88 0 -20 -13
-191 145 -191 176 0 35 -47 83 -81 83 -38 0 -79 -40 -79 -77 0 -22 -22 -51
-98 -130 l-97 -101 -51 5 c-44 4 -55 2 -73 -16 -22 -22 -28 -70 -11 -101 14
-27 64 -41 100 -28 34 11 50 35 50 73 0 20 25 53 96 130 81 87 100 103 115 95
26 -14 72 -12 94 4 17 12 26 6 102 -70 59 -59 83 -91 83 -108 0 -14 11 -37 24
-52 47 -55 136 -26 140 45 1 25 19 49 90 120 l89 89 52 -5 c48 -5 53 -3 74 23
28 36 22 79 -15 112 -32 28 -66 28 -100 -1z"/>
<path fill="#ffffff" stroke="none" d="M3438 3358 c32 -32 -4 -87 -48 -73 -25
8 -37 50 -20 70 15 18 51 20 68 3z"/>
<path fill="#ffffff" stroke="none" d="M2800 3325 c15 -19 6 -61 -16 -69 -19
-7 -64 18 -64 36 0 18 31 48 50 48 10 0 23 -7 30 -15z"/>
<path fill="#ffffff" stroke="none" d="M3115 3087 c26 -19 13 -65 -20 -73 -31
-8 -55 10 -55 42 0 37 42 55 75 31z"/>
<path fill="#ffffff" stroke="none" d="M2458 3038 c19 -19 14 -56 -9 -68 -16
-9 -26 -8 -45 5 -28 18 -30 32 -7 57 19 21 44 23 61 6z"/>
<path fill="#000000" stroke="none" d="M1902 2900 c-33 -14 -45 -54 -28 -94
17 -41 57 -54 93 -31 50 33 49 100 -4 124 -28 13 -30 13 -61 1z"/>
<path fill="#000000" stroke="none" d="M3242 2884 c-45 -31 -9 -124 48 -124
31 0 70 44 70 78 0 55 -68 82 -118 46z"/>
<path fill="#000000" stroke="none" d="M910 2673 c1 -207 8 -260 47 -315 71
-104 256 -119 354 -31 72 65 73 72 77 316 l4 217 -71 0 -71 0 0 -190 c0 -243
-13 -280 -99 -280 -83 0 -91 22 -91 270 l0 200 -75 0 -75 0 0 -187z"/>
<path fill="#000000" stroke="none" d="M2760 2569 l0 -291 158 4 c177 5 215
15 253 69 33 47 38 141 9 187 -11 18 -35 39 -52 46 l-31 14 22 13 c42 26 64
75 59 130 -10 98 -61 119 -283 119 l-135 0 0 -291z"/>
<path fill="#ffffff" stroke="none" d="M3032 2732 c6 -6 11 -23 11 -38 0 -41
-35 -64 -94 -64 l-49 0 0 61 0 62 61 -6 c34 -3 66 -10 71 -15z"/>
<path fill="#ffffff" stroke="none" d="M3044 2509 c33 -26 34 -62 1 -94 -20
-21 -34 -25 -85 -25 l-60 0 0 70 0 70 59 0 c44 0 65 -5 85 -21z"/>
<path fill="#000000" stroke="none" d="M2078 2788 c-3 -46 -6 -53 -25 -56 -20
-3 -23 -9 -23 -52 0 -43 3 -49 23 -52 21 -3 22 -7 27 -138 5 -146 11 -164 64
-196 23 -14 49 -19 99 -18 37 1 70 4 73 7 3 3 2 26 -1 51 -7 45 -8 46 -44 46
-56 0 -61 11 -61 132 l0 108 40 0 c24 0 40 5 40 12 0 40 49 -84 114 -290 25
-78 25 -84 11 -113 -9 -17 -29 -35 -46 -41 -26 -9 -29 -14 -29 -54 l0 -45 38
6 c59 10 117 34 140 58 12 12 33 54 48 92 44 116 164 467 164 481 0 10 -15 12
-62 8 -35 -3 -65 -7 -67 -10 -2 -2 -23 -69 -46 -149 -23 -80 -44 -147 -47
-150 -2 -3 -22 68 -43 156 l-39 161 -103 -4 -103 -5 0 54 0 53 -69 0 -70 0 -3
-52z"/>
<path fill="#000000" stroke="none" d="M1645 2738 c-16 -6 -42 -22 -57 -36
l-28 -26 0 33 0 32 -67 -3 -68 -3 0 -225 0 -225 63 -1 62 -2 0 140 c0 153 11
193 55 204 34 8 71 -2 81 -23 5 -10 11 -85 14 -168 l5 -150 65 0 65 0 0 175
c0 192 -7 226 -55 260 -34 24 -96 33 -135 18z"/>
<path fill="#000000" stroke="none" d="M1862 2508 l3 -223 68 -3 67 -3 0 226
0 225 -70 0 -70 0 2 -222z"/>
<path fill="#000000" stroke="none" d="M3220 2505 l0 -225 70 0 70 0 0 225 0
225 -70 0 -70 0 0 -225z"/>
<path fill="#000000" stroke="none" d="M3400 2680 l0 -50 85 0 c47 0 85 -2 85
-5 0 -10 -119 -183 -149 -218 -21 -23 -30 -45 -32 -77 l-4 -45 179 -3 c198 -3
196 -4 196 61 l0 37 -100 0 c-55 0 -100 3 -100 6 0 8 104 158 146 211 28 33
34 50 34 87 l0 46 -170 0 -170 0 0 -50z"/>
</g>
</svg>
