<?xml version="1.0" standalone="no"?>
<!DOCTYPE svg PUBLIC "-//W3C//DTD SVG 20010904//EN"
 "http://www.w3.org/TR/2001/REC-SVG-20010904/DTD/svg10.dtd">
<svg version="1.0" xmlns="http://www.w3.org/2000/svg"
 width="333.096209pt" height="144.522023pt" viewBox="0 0 333.096209 144.522023"
 preserveAspectRatio="xMidYMid meet">
<metadata>
Created by potrace 1.16, written by Peter Selinger 2001-2019
</metadata>
<g transform="translate(-88.903791,334.522023) scale(0.100000,-0.100000)"
fill="#000000" stroke="none">
<path fill="#000000" stroke="none" d="M3773 3336 c-17 -8 -37 -24 -43 -36
-11 -20 -10 -68 1 -95 2 -6 -43 -53 -101 -106 l-106 -97 -27 24 c-33 28 -66
30 -108 8 l-30 -15 -66 58 c-36 32 -78 68 -93 80 -15 12 -35 43 -44 68 -12 31
-28 50 -48 61 -63 33 -138 -11 -138 -80 0 -24 -8 -38 -28 -53 -15 -11 -69 -57
-120 -102 -78 -69 -96 -80 -112 -71 -33 18 -69 11 -102 -19 -85 -76 8 -210
109 -157 36 18 57 64 50 108 -5 31 -1 37 75 103 140 122 133 118 167 100 44
-22 85 -19 119 10 17 14 32 21 34 17 1 -5 42 -44 91 -86 65 -59 87 -84 87
-103 0 -36 29 -80 61 -94 56 -23 118 13 136 77 5 20 43 61 116 127 107 96 107
97 150 91 37 -5 48 -2 74 20 17 15 34 40 38 56 6 30 -11 76 -38 98 -23 19 -70
23 -104 8z"/>
<path fill="#ffffff" stroke="none" d="M3848 3294 c14 -10 22 -26 22 -44 0
-29 -30 -60 -57 -60 -20 0 -53 42 -53 66 0 22 33 54 55 54 6 0 21 -7 33 -16z"/>
<path fill="#ffffff" stroke="none" d="M3100 3240 c53 -53 -16 -134 -72 -83
-10 9 -18 27 -18 40 0 26 32 63 55 63 8 0 24 -9 35 -20z"/>
<path fill="#ffffff" stroke="none" d="M3474 2994 c25 -24 20 -71 -9 -90 -30
-20 -58 -11 -73 22 -17 36 -15 51 10 68 29 20 52 20 72 0z"/>
<path fill="#ffffff" stroke="none" d="M2710 2930 c11 -11 20 -29 20 -40 0
-22 -33 -60 -53 -60 -30 0 -57 31 -57 65 0 53 52 73 90 35z"/>
<path fill="#000000" stroke="none" d="M2070 2783 c-81 -29 -78 -138 4 -159
54 -13 116 46 102 99 -9 39 -70 73 -106 60z"/>
<path fill="#000000" stroke="none" d="M3625 2755 c-63 -62 7 -154 93 -124 37
13 52 35 52 77 0 67 -95 98 -145 47z"/>
<path fill="#000000" stroke="none" d="M892 2476 l3 -254 30 -43 c45 -64 107
-92 215 -97 146 -7 234 31 283 122 21 39 22 53 22 281 l0 240 -82 3 -83 3 0
-226 c0 -246 -6 -276 -56 -295 -39 -15 -97 -12 -123 6 -45 32 -51 67 -51 299
l0 215 -80 0 -81 0 3 -254z"/>
<path fill="#000000" stroke="none" d="M3060 2410 l0 -320 168 0 c92 0 183 5
203 10 50 14 99 49 127 90 20 30 23 44 20 102 -4 74 -26 109 -82 132 l-30 12
36 22 c82 51 75 169 -13 234 -37 27 -116 38 -280 38 l-149 0 0 -320z"/>
<path fill="#ffffff" stroke="none" d="M3369 2585 c21 -21 22 -61 4 -83 -14
-17 -31 -22 -83 -24 l-65 -3 -3 64 -3 63 70 -4 c39 -2 75 -8 80 -13z"/>
<path fill="#ffffff" stroke="none" d="M3384 2339 c32 -25 35 -70 6 -99 -16
-16 -33 -20 -95 -20 l-75 0 0 70 0 70 69 0 c54 0 74 -4 95 -21z"/>
<path fill="#000000" stroke="none" d="M2250 2645 l0 -65 -120 0 -120 0 0
-245 0 -245 85 0 85 0 0 193 0 193 34 0 34 0 4 -155 c5 -225 22 -246 188 -239
l75 3 3 53 3 52 -40 0 c-30 0 -43 5 -51 19 -5 11 -10 76 -10 146 l0 126 52 -3
52 -3 77 -195 c43 -107 78 -203 78 -212 2 -33 -35 -58 -84 -58 l-45 0 0 -55 0
-55 68 0 c93 0 146 27 188 97 25 41 234 558 234 578 0 3 -40 5 -88 5 l-88 0
-39 -142 c-64 -241 -54 -238 -110 -34 l-49 176 -123 0 -122 0 -3 63 -3 62 -82
3 -83 3 0 -66z"/>
<path fill="#000000" stroke="none" d="M1737 2586 c-26 -7 -49 -15 -50 -17 -2
-2 -13 -17 -25 -33 l-22 -29 0 37 0 36 -80 0 -80 0 0 -245 0 -245 79 0 79 0 4
164 c3 149 5 167 24 193 28 38 91 44 120 12 17 -19 19 -39 22 -195 l3 -174 80
0 80 0 -3 204 c-3 190 -5 207 -24 233 -44 59 -124 82 -207 59z"/>
<path fill="#000000" stroke="none" d="M3604 2581 c-2 -2 -4 -114 -4 -248 l0
-243 85 0 85 0 -2 247 -3 246 -78 1 c-43 1 -81 -1 -83 -3z"/>
<path fill="#000000" stroke="none" d="M3810 2531 l0 -50 115 -3 115 -3 -120
-141 c-110 -130 -120 -146 -126 -193 l-7 -51 217 0 216 0 0 50 0 50 -120 0
c-66 0 -120 3 -120 6 0 8 128 161 197 237 41 44 44 51 41 95 l-3 47 -202 3
-203 2 0 -49z"/>
</g>
</svg>
