<?xml version="1.0" standalone="no"?>
<!DOCTYPE svg PUBLIC "-//W3C//DTD SVG 20010904//EN"
 "http://www.w3.org/TR/2001/REC-SVG-20010904/DTD/svg10.dtd">
<svg version="1.0" xmlns="http://www.w3.org/2000/svg"
 width="332.053711pt" height="143.973697pt" viewBox="0 0 332.053711 143.973697"
 preserveAspectRatio="xMidYMid meet">
<g transform="translate(-89.055872,334.132406) scale(0.100000,-0.100000)"
fill="#ffffff" stroke="none">
<path fill="#ffffff" stroke="none" d="M3753 3314 c-23 -23 -25 -32 -21 -77
l5 -52 -104 -93 -104 -92 -28 21 c-29 21 -71 23 -127 4 -31 -10 -199 141 -225
201 -24 57 -89 92 -89 49 0 -7 13 -18 30 -25 36 -15 45 -41 28 -77 -24 -50
-96 -38 -114 19 -4 14 3 29 21 48 30 32 27 57 -6 40 -22 -12 -51 -64 -47 -85
2 -7 -50 -62 -116 -120 -97 -88 -122 -105 -140 -100 -65 23 -122 -11 -133 -78
-5 -31 -1 -40 25 -67 21 -20 40 -30 61 -30 39 0 40 15 3 28 -63 22 -83 78 -37
108 31 20 69 12 90 -19 14 -22 11 -67 -6 -67 -5 0 -9 -7 -9 -15 0 -23 28 -18
42 8 6 12 12 40 12 62 1 38 7 45 108 138 l106 97 36 -21 c40 -23 79 -20 119
11 l24 19 92 -82 c51 -45 94 -91 96 -104 3 -13 7 -34 10 -48 6 -26 61 -68 80
-62 18 6 10 27 -15 40 -36 18 -53 56 -36 82 21 32 60 41 90 21 32 -20 34 -54
5 -90 -13 -17 -18 -31 -12 -37 15 -15 52 19 59 57 5 28 27 54 117 135 l110
101 43 -7 c37 -5 46 -3 73 22 32 30 44 63 24 70 -7 3 -17 -7 -23 -21 -11 -29
-54 -45 -79 -29 -9 5 -23 22 -31 36 -13 24 -13 28 9 51 29 31 59 33 94 6 47
-38 64 -21 22 24 -34 36 -95 37 -132 0z"/>
<path fill="#ffffff" stroke="none" d="M2042 2760 c-31 -29 -31 -93 0 -114 55
-39 128 -5 128 59 0 63 -81 98 -128 55z"/>
<path fill="#ffffff" stroke="none" d="M3631 2754 c-12 -15 -21 -37 -21 -49 0
-37 37 -75 74 -75 50 0 76 24 76 71 0 50 -27 79 -74 79 -25 0 -40 -7 -55 -26z"/>
<path fill="#ffffff" stroke="none" d="M3088 2723 l-28 -4 0 -303 c0 -248 3
-306 14 -315 9 -8 50 -11 117 -9 l104 3 0 60 0 60 -37 3 c-43 4 -51 20 -46 93
3 43 4 44 41 47 l37 3 0 55 c0 53 -1 54 -29 54 -40 0 -53 20 -49 77 3 46 4 48
36 51 l32 3 0 58 0 58 -46 7 c-49 6 -99 6 -146 -1z"/>
<path fill="#ffffff" stroke="none" d="M894 2705 c-3 -8 -4 -115 -2 -237 l3
-223 28 -48 c35 -59 84 -92 162 -107 109 -22 229 2 288 58 60 57 62 66 65 330
l4 242 -76 0 -76 0 0 -216 c0 -281 -10 -304 -131 -304 -44 0 -55 4 -79 30 -35
37 -40 75 -40 306 l0 184 -70 0 c-53 0 -72 -4 -76 -15z"/>
<path fill="#ffffff" stroke="none" d="M3300 2660 c0 -60 0 -60 29 -60 36 0
61 -23 61 -56 0 -41 -18 -64 -49 -64 -27 0 -29 -3 -34 -52 -6 -64 -4 -68 32
-68 44 0 75 -31 75 -74 0 -44 -12 -57 -61 -65 l-38 -6 -3 -64 -3 -64 61 6
c132 14 200 81 200 195 0 67 -19 101 -73 128 l-31 16 31 27 c41 34 53 61 53
112 0 89 -76 149 -190 149 l-60 0 0 -60z"/>
<path fill="#ffffff" stroke="none" d="M2260 2640 l0 -60 -120 0 -120 0 0
-245 0 -246 73 3 72 3 3 193 2 192 44 0 44 0 4 -162 c3 -183 8 -198 71 -223
38 -15 114 -20 155 -9 18 5 22 13 22 49 0 43 -1 43 -40 50 -24 4 -44 14 -50
25 -6 10 -10 75 -10 145 l0 126 61 -3 61 -3 80 -203 81 -204 -20 -26 c-14 -19
-34 -30 -67 -36 l-47 -10 3 -45 3 -46 52 -3 c71 -4 133 24 172 78 33 46 241
560 241 597 0 2 -35 3 -79 3 l-79 0 -31 -117 c-18 -65 -39 -144 -48 -176 -9
-32 -20 -56 -26 -54 -9 3 -46 123 -97 309 l-11 37 -122 3 -122 3 -3 58 -3 57
-74 0 -75 0 0 -60z"/>
<path fill="#fffefe" stroke="none" d="M1723 2580 c-11 -5 -34 -24 -49 -44
-33 -41 -44 -38 -44 10 l0 34 -70 0 -70 0 2 -242 3 -243 65 0 65 0 6 150 c6
160 15 194 59 227 19 13 34 17 58 12 58 -12 66 -37 72 -224 l5 -165 70 0 70 0
0 195 c0 221 -6 245 -77 281 -39 20 -125 25 -165 9z"/>
<path fill="#ffffff" stroke="none" d="M3612 2338 l3 -243 70 0 70 0 3 243 2
242 -75 0 -75 0 2 -242z"/>
<path fill="#ffffff" stroke="none" d="M3827 2574 c-4 -4 -7 -27 -7 -51 l0
-43 111 0 c65 0 109 -4 107 -9 -1 -6 -56 -73 -120 -151 -107 -127 -118 -144
-118 -180 0 -36 2 -40 33 -45 17 -3 109 -5 202 -3 l170 3 3 48 3 47 -120 0
c-67 0 -121 3 -121 6 0 3 54 69 121 146 120 140 120 140 117 187 l-3 46 -186
3 c-102 1 -188 -1 -192 -4z"/>
</g>
</svg>